<svg width="512" height="512" viewBox="0 0 512 512" fill="none" xmlns="http://www.w3.org/2000/svg">
<rect width="512" height="512" rx="89.825" fill="#427BE9"/>
<path fill-rule="evenodd" clip-rule="evenodd" d="M353.099 141.08L353.099 255.721L353.111 257.122L353.11 258.386L353.096 259.65L353.07 260.913L353.031 262.175L352.98 263.435L352.917 264.695L352.841 265.953L352.753 267.21L352.653 268.464L352.54 269.718L352.415 270.969L352.278 272.218L352.129 273.465L351.967 274.71L351.794 275.952L351.608 277.193L351.41 278.43L351.2 279.664L350.978 280.896L350.745 282.124L350.499 283.35L350.241 284.572L349.971 285.792L349.69 287.007L349.397 288.219L349.092 289.427L348.775 290.631L348.447 291.832L348.107 293.028L347.756 294.22L347.393 295.408L347.018 296.591L346.632 297.77L346.235 298.944L345.827 300.114L345.407 301.279L344.976 302.438L344.534 303.593L344.08 304.742L343.616 305.886L343.141 307.024L342.655 308.157L342.158 309.285L341.65 310.406L341.132 311.522L340.603 312.631L340.063 313.736L339.513 314.833L338.952 315.924L338.381 317.009L337.8 318.088L337.208 319.159L336.606 320.225L335.995 321.282L335.372 322.335L334.74 323.378L334.099 324.415L333.446 325.447L332.785 326.469L332.115 327.484L331.434 328.492L330.744 329.493L330.044 330.486L329.335 331.471L328.617 332.448L327.89 333.417L327.154 334.378L326.408 335.332L325.654 336.276L324.891 337.213L324.119 338.142L323.339 339.061L322.55 339.973L321.752 340.875L320.945 341.77L320.132 342.654L319.309 343.531L318.479 344.398L317.64 345.257L316.794 346.106L315.94 346.946L315.077 347.778L314.208 348.599L313.331 349.411L312.446 350.214L311.554 351.007L310.655 351.791L309.749 352.565L308.835 353.329L307.915 354.084L306.987 354.828L306.054 355.562L305.113 356.287L304.166 357.002L303.211 357.707L302.253 358.4L301.286 359.085L300.313 359.759L299.337 360.421L298.352 361.075L297.361 361.718L296.365 362.35L295.364 362.972L294.358 363.582L293.345 364.183L292.329 364.772L291.304 365.351L290.279 365.918L289.245 366.476L288.206 367.023L287.165 367.558L286.12 368.081L285.067 368.595L284.012 369.097L282.952 369.588L281.888 370.069L280.819 370.538L279.746 370.996L278.672 371.442L277.593 371.877L276.508 372.301L275.423 372.713L274.331 373.115L273.238 373.505L272.143 373.883L271.042 374.25L269.941 374.605L268.834 374.95L267.728 375.282L266.615 375.604L265.505 375.913L264.388 376.211L263.271 376.497L262.149 376.772L261.03 377.035L259.906 377.287L258.78 377.527L257.653 377.755L256.526 377.971L255.395 378.177L254.263 378.37L253.132 378.552L251.998 378.722L250.863 378.88L249.73 379.026L248.592 379.162L247.457 379.285L246.319 379.396L245.182 379.496L244.045 379.584L242.906 379.661L241.768 379.726L240.631 379.779L239.494 379.821L238.356 379.851L237.218 379.869L236.082 379.876L234.947 379.871L233.812 379.854L232.679 379.826L231.545 379.787L230.414 379.735L229.283 379.673L228.153 379.598L227.027 379.513L225.899 379.416L224.774 379.307L223.654 379.187L222.531 379.056L221.411 378.913L220.295 378.759L219.181 378.593L218.07 378.417L216.958 378.229L215.851 378.03L214.747 377.82L213.646 377.598L212.545 377.365L211.451 377.122L210.358 376.867L209.266 376.601L208.182 376.325L207.098 376.038L206.02 375.739L204.945 375.43L203.872 375.11L202.802 374.779L201.739 374.438L200.679 374.086L199.622 373.723L198.571 373.35L197.523 372.966L196.481 372.572L195.442 372.167L194.408 371.753L193.38 371.328L192.354 370.892L191.335 370.446L190.321 369.99L189.313 369.525L188.308 369.049L187.31 368.563L186.317 368.068L185.329 367.562L184.346 367.046L183.372 366.523L182.399 365.987L181.437 365.444L180.477 364.89L179.524 364.327L178.579 363.755L177.637 363.173L176.704 362.582L175.776 361.981L174.856 361.373L173.941 360.754L173.034 360.128L172.131 359.491L171.24 358.848L170.351 358.193L169.471 357.532L168.597 356.86L167.733 356.183L166.874 355.494L166.021 354.797L165.178 354.094L164.343 353.383L163.513 352.662L162.691 351.933L161.879 351.198L161.072 350.453L160.275 349.702L159.484 348.941L158.703 348.175L157.928 347.4L157.163 346.619L156.404 345.829L155.656 345.034L154.914 344.229L154.182 343.419L153.456 342.6L152.742 341.777L152.034 340.945L151.336 340.108L150.646 339.263L149.966 338.413L149.293 337.556L148.629 336.69L147.975 335.821L147.33 334.946L146.693 334.063L146.067 333.177L145.448 332.282L144.839 331.383L144.238 330.476L143.65 329.568L143.067 328.65L142.497 327.73L141.934 326.804L141.382 325.873L140.838 324.935L140.305 323.994L139.78 323.046L139.267 322.096L138.762 321.14L138.268 320.181L137.782 319.215L137.307 318.246L136.841 317.273L136.386 316.295L135.941 315.316L135.505 314.329L135.079 313.34L134.664 312.348L134.258 311.351L133.862 310.352L133.476 309.347L133.102 308.343L132.737 307.334L132.381 306.319L132.037 305.306L131.702 304.285L131.378 303.267L131.064 302.241L130.76 301.215L130.467 300.187L130.184 299.158L129.911 298.123L129.648 297.087L129.396 296.051L129.155 295.013L128.923 293.971L128.703 292.929L128.492 291.885L128.292 290.839L128.102 289.791L127.923 288.745L127.754 287.696L127.596 286.646L127.448 285.594L127.311 284.544L127.184 283.489L127.067 282.438L126.961 281.382L126.865 280.33L126.78 279.277L126.705 278.221L126.641 277.166L126.587 276.113L126.543 275.06L126.51 274.004L126.487 272.951L126.475 271.901L126.473 270.847L126.481 269.794L126.5 268.746L126.529 267.695L126.568 266.645L126.618 265.599L126.678 264.553L126.748 263.507L126.828 262.463L126.919 261.421L127.02 260.38L127.131 259.343L127.252 258.305L127.383 257.271L127.524 256.238L127.676 255.207L127.837 254.178L128.008 253.154L128.19 252.129L128.381 251.109L128.582 250.09L128.793 249.076L129.015 248.062L129.245 247.053L129.485 246.048L129.736 245.043L129.996 244.043L130.266 243.047L130.545 242.052L130.833 241.064L131.132 240.077L131.44 239.095L131.757 238.117L132.084 237.142L132.42 236.173L132.766 235.204L133.12 234.244L133.483 233.286L133.857 232.331L134.238 231.384L134.63 230.439L135.03 229.499L135.439 228.565L135.858 227.633L136.284 226.71L136.72 225.789L137.165 224.875L137.618 223.965L138.079 223.061L138.55 222.161L139.029 221.267L139.516 220.38L140.012 219.497L140.516 218.62L141.028 217.749L141.548 216.884L142.077 216.024L142.613 215.173L143.159 214.324L143.71 213.485L144.272 212.648L144.839 211.822L145.416 210.999L146 210.183L146.59 209.376L147.189 208.574L147.796 207.777L148.41 206.989L149.03 206.208L149.659 205.432L150.294 204.665L150.937 203.903L151.585 203.15L152.243 202.403L152.906 201.664L153.576 200.932L154.252 200.208L154.936 199.49L155.626 198.781L156.322 198.079L157.026 197.383L157.734 196.698L158.449 196.019L159.171 195.347L159.899 194.684L160.632 194.029L161.372 193.381L162.117 192.743L162.869 192.11L163.624 191.488L164.387 190.873L165.155 190.266L165.928 189.668L166.707 189.078L167.491 188.496L168.279 187.923L169.074 187.358L169.872 186.802L170.676 186.254L171.484 185.716L172.297 185.186L173.116 184.664L173.938 184.151L174.765 183.647L175.596 183.152L176.432 182.665L177.271 182.188L178.114 181.719L178.962 181.26L179.814 180.809L180.669 180.368L181.528 179.935L182.39 179.512L183.256 179.098L184.126 178.693L184.999 178.297L185.875 177.91L186.755 177.533L187.636 177.165L188.522 176.806L189.41 176.456L190.301 176.116L191.194 175.785L192.09 175.464L192.989 175.152L193.891 174.849L194.793 174.556L195.699 174.272L196.606 173.998L197.516 173.733L198.428 173.478L199.341 173.232L200.257 172.996L201.173 172.77L202.091 172.552L203.011 172.345L203.932 172.147L204.854 171.958L205.778 171.779L206.702 171.61L207.628 171.45L208.554 171.3L209.481 171.159L210.409 171.028L211.337 170.907L212.266 170.795L213.195 170.693L214.125 170.6L215.055 170.517L215.985 170.443L216.914 170.379L217.844 170.325L218.774 170.28L219.703 170.244L220.632 170.218L221.561 170.202L222.489 170.195L223.416 170.198L224.342 170.21L225.268 170.231L226.193 170.262L227.117 170.303L228.04 170.353L228.961 170.412L229.881 170.481L230.8 170.559L231.717 170.646L232.633 170.742L233.547 170.848L234.46 170.963L235.37 171.088L236.279 171.221L237.185 171.364L238.09 171.516L238.992 171.677L239.892 171.847L240.79 172.027L241.685 172.215L242.578 172.412L243.468 172.618L244.355 172.833L245.239 173.058L246.121 173.291L247 173.532L247.875 173.783L248.748 174.042L249.617 174.31L250.483 174.587L251.345 174.872L252.204 175.166L253.059 175.469L253.911 175.779L254.759 176.099L255.603 176.427L256.444 176.763L257.28 177.108L258.112 177.461L258.941 177.822L259.764 178.191L260.584 178.568L261.399 178.954L262.211 179.347L263.017 179.749L263.819 180.158L264.616 180.576L265.408 181.001L266.196 181.434L266.979 181.874L267.757 182.323L268.53 182.779L269.297 183.242L270.06 183.713L270.817 184.191L271.569 184.677L272.315 185.169L273.057 185.67L273.792 186.177L274.522 186.692L275.247 187.214L275.965 187.742L276.678 188.277L277.386 188.82L278.087 189.369L278.782 189.925L279.471 190.488L280.154 191.057L280.831 191.632L281.502 192.215L282.166 192.803L282.825 193.398L283.477 193.999L284.122 194.607L284.761 195.22L285.393 195.839L286.018 196.465L286.638 197.096L287.25 197.734L287.856 198.376L288.454 199.025L289.046 199.679L289.631 200.339L290.209 201.004L290.78 201.675L291.344 202.35L291.901 203.032L292.45 203.718L292.993 204.409L293.528 205.106L294.056 205.807L294.577 206.513L295.09 207.224L295.595 207.939L296.094 208.659L296.585 209.383L297.068 210.113L297.544 210.846L298.012 211.584L298.472 212.325L298.925 213.071L299.37 213.821L299.808 214.575L300.237 215.333L300.659 216.095L301.072 216.859L301.479 217.628L301.877 218.401L302.267 219.177L302.649 219.956L303.023 220.738L303.389 221.523L303.748 222.312L304.097 223.104L304.44 223.899L304.774 224.696L305.099 225.496L305.417 226.299L305.726 227.104L306.028 227.913L306.32 228.723L306.605 229.536L306.882 230.351L307.15 231.168L307.41 231.987L307.662 232.808L307.906 233.632L308.14 234.456L308.367 235.283L308.586 236.111L308.796 236.941L308.998 237.772L309.191 238.604L309.376 239.438L309.553 240.273L309.721 241.11L309.881 241.946L310.033 242.785L310.176 243.623L310.311 244.464L310.437 245.303L310.555 246.145L310.665 246.986L310.766 247.828L310.859 248.67L310.943 249.512L311.019 250.355L311.087 251.198L311.147 252.041L311.198 252.883L311.24 253.725L311.275 254.567L311.301 255.408L311.318 256.25L311.328 257.091L311.329 257.931L311.322 258.769L311.306 259.609L311.283 260.446L311.251 261.283L311.21 262.118L311.162 262.953L311.106 263.786L311.041 264.618L310.968 265.449L310.887 266.278L310.798 267.105L310.701 267.932L310.596 268.756L310.483 269.578L310.361 270.399L310.232 271.217L310.095 272.034L309.95 272.848L309.797 273.661L309.636 274.471L309.467 275.278L309.291 276.084L309.107 276.887L308.915 277.686L308.715 278.484L308.507 279.279L308.292 280.07L308.07 280.86L307.839 281.646L307.602 282.428L307.356 283.208L307.103 283.986L306.843 284.758L306.576 285.528L306.301 286.295L306.018 287.058L305.729 287.818L305.432 288.574L305.128 289.326L304.817 290.075L304.499 290.818L304.173 291.56L303.841 292.296L303.502 293.029L303.156 293.757L302.803 294.481L302.443 295.201L302.076 295.917L301.703 296.629L301.323 297.335L300.936 298.037L300.543 298.735L300.143 299.428L299.737 300.117L299.325 300.8L298.906 301.479L298.48 302.153L298.049 302.821L297.611 303.485L297.167 304.144L296.717 304.797L296.261 305.446L295.799 306.089L295.331 306.726L294.858 307.359L294.378 307.986L293.893 308.607L293.402 309.224L292.905 309.834L292.403 310.439L291.895 311.038L291.382 311.631L290.864 312.219L290.34 312.8L289.811 313.376L289.276 313.946L288.737 314.51L288.193 315.068L287.643 315.62L287.089 316.165L286.53 316.704L285.966 317.237L285.396 317.765L284.824 318.285L284.246 318.799L283.663 319.307L283.076 319.809L282.484 320.304L281.89 320.791L281.289 321.274L280.684 321.75L280.077 322.218L279.464 322.68L278.847 323.135L278.228 323.583L277.603 324.026L276.975 324.461L276.344 324.889L275.71 325.31L275.069 325.725L274.429 326.131L273.781 326.533L273.133 326.926L272.481 327.313L271.826 327.692L271.167 328.064L270.506 328.429L269.84 328.788L269.174 329.139L268.503 329.483L267.83 329.819L267.154 330.149L266.476 330.471L265.794 330.787L265.111 331.094L264.426 331.394L263.739 331.687L263.047 331.974L262.355 332.252L261.659 332.524L260.966 332.786L260.264 333.044L259.566 333.292L258.862 333.534L258.16 333.768L257.452 333.995L256.747 334.214L256.039 334.426L255.329 334.63L254.616 334.828L253.905 335.017L253.189 335.199L252.477 335.373L251.76 335.541L251.043 335.7L250.326 335.852L249.607 335.997L248.887 336.134L248.168 336.263L247.448 336.385L246.725 336.5L246.006 336.607L245.283 336.707L244.562 336.799L243.839 336.883L243.116 336.961L242.394 337.03L241.671 337.093L240.95 337.147L240.226 337.195L239.506 337.234L238.783 337.267L238.063 337.292L237.341 337.309L236.621 337.32L235.901 337.323L235.183 337.318L234.464 337.306L233.746 337.287L233.031 337.26L232.314 337.226L231.599 337.185L230.886 337.137L230.176 337.081L229.462 337.018L228.753 336.948L228.046 336.871L227.338 336.786L226.633 336.694L225.929 336.596L225.228 336.49L224.525 336.376L223.828 336.257L223.131 336.129L222.438 335.996L221.743 335.854L221.054 335.706L220.365 335.551L219.679 335.389L218.993 335.22L218.314 335.045L217.633 334.862L216.957 334.673L216.282 334.477L215.611 334.275L214.943 334.066L214.276 333.85L213.612 333.627L212.952 333.398L212.294 333.162L211.639 332.92L210.988 332.671L210.339 332.416L209.693 332.155L209.051 331.887L208.412 331.613L207.777 331.333L207.146 331.047L206.516 330.753L205.891 330.454L205.27 330.149L204.651 329.838L204.036 329.52L203.427 329.198L202.82 328.869L202.217 328.534L201.619 328.194L201.023 327.846L200.431 327.494L199.847 327.137L199.262 326.772L198.684 326.403L198.11 326.029L197.539 325.648L196.975 325.263L196.411 324.87L195.856 324.475L195.303 324.073L194.756 323.666L194.211 323.253L193.674 322.837L193.138 322.413L192.609 321.986L192.086 321.554L191.565 321.116L191.05 320.674L190.541 320.227L190.036 319.775L189.534 319.317L189.04 318.857L188.549 318.39L188.066 317.921L187.585 317.446L187.11 316.966L186.642 316.484L186.177 315.994L185.718 315.502L185.265 315.006L184.816 314.504L184.374 314.001L183.937 313.492L183.505 312.979L183.078 312.462L182.658 311.942L182.242 311.418L181.833 310.89L181.43 310.359L181.031 309.823L180.639 309.285L180.252 308.743L179.87 308.197L179.495 307.649L179.126 307.096L178.762 306.541L178.404 305.983L178.053 305.422L177.706 304.857L177.366 304.289L177.032 303.719L176.705 303.147L176.382 302.569L176.067 301.992L175.756 301.41L175.452 300.826L175.154 300.24L174.862 299.651L174.577 299.06L174.298 298.469L174.024 297.871L173.757 297.274L173.496 296.674L173.242 296.072L172.992 295.467L172.751 294.862L172.515 294.256L172.285 293.645L172.061 293.034L171.844 292.421L171.633 291.807L171.429 291.192L171.23 290.574L171.038 289.956L170.853 289.337L170.673 288.715L170.499 288.091L170.333 287.469L170.173 286.846L170.018 286.219L169.871 285.595L169.729 284.966L169.594 284.338L169.466 283.71L169.343 283.079L169.228 282.452L169.118 281.82L169.015 281.191L168.917 280.558L168.827 279.929L168.743 279.297L168.665 278.665L168.593 278.032L168.528 277.403L168.469 276.769L168.416 276.138L168.37 275.506L168.33 274.877L168.296 274.244L168.268 273.614L168.247 272.982L168.232 272.355L168.223 271.724L168.221 271.096L168.225 270.468L168.234 269.841L168.25 269.215L168.273 268.589L168.301 267.965L168.336 267.342L168.376 266.72L168.423 266.098L168.476 265.478L168.535 264.86L168.6 264.242L168.671 263.624L168.747 263.011L168.83 262.397L168.919 261.787L169.014 261.175L169.115 260.568L169.222 259.961L169.334 259.357L169.453 258.752L169.577 258.152L169.707 257.553L169.842 256.957L169.985 256.359L170.131 255.77L170.285 255.176L170.443 254.589L170.607 254.004L170.777 253.42L170.952 252.838L171.133 252.26L171.32 251.683L171.511 251.111L171.709 250.538L171.912 249.97L172.119 249.406L172.334 248.841L172.552 248.282L172.776 247.726L173.006 247.171L173.239 246.621L173.48 246.072L173.725 245.527L173.974 244.986L174.229 244.448L174.489 243.913L174.754 243.38L175.024 242.851L175.298 242.327L175.579 241.805L175.863 241.287L176.152 240.772L176.446 240.261L176.745 239.754L177.048 239.251L177.357 238.75L177.668 238.255L177.986 237.761L178.307 237.274L178.633 236.788L178.963 236.308L179.298 235.831L179.638 235.357L179.98 234.89L180.328 234.425L180.68 233.965L181.035 233.509L181.394 233.057L181.759 232.609L182.128 232.164L182.498 231.727L182.874 231.292L183.254 230.861L183.637 230.435L184.024 230.013L184.415 229.596L184.808 229.185L185.207 228.776L185.608 228.373L186.014 227.973L186.422 227.58L186.832 227.192L187.249 226.806L187.667 226.426L188.088 226.051L188.513 225.681L188.942 225.315L189.372 224.955L189.807 224.598L190.244 224.248L190.683 223.902L191.126 223.561L191.571 223.226L192.02 222.894L192.472 222.568L192.925 222.247L193.381 221.931L193.84 221.621L194.301 221.315L194.765 221.014L195.231 220.719L195.7 220.428L196.17 220.144L196.643 219.864L197.118 219.589L197.595 219.32L198.075 219.055L198.556 218.797L199.04 218.543L199.524 218.295L200.011 218.052L200.5 217.814L200.991 217.582L201.483 217.355L201.976 217.133L202.472 216.916L202.968 216.706L203.467 216.5L203.966 216.3L204.467 216.105L204.969 215.916L205.473 215.732L205.977 215.553L206.483 215.38L206.99 215.212L207.497 215.05L208.006 214.893L208.516 214.742L209.026 214.596L209.537 214.455L210.049 214.32L210.562 214.19L211.074 214.066L211.588 213.947L212.103 213.834L212.617 213.726L213.132 213.623L213.648 213.526L214.163 213.434L214.679 213.348L215.195 213.267L215.711 213.192L216.227 213.122L216.743 213.057L217.26 212.998L217.775 212.944L218.291 212.896L218.807 212.852L219.322 212.815L219.837 212.782L220.352 212.755L220.867 212.733L221.38 212.717L221.893 212.706L222.406 212.7L222.918 212.699L223.43 212.704L223.94 212.714L224.45 212.729L224.959 212.75L225.467 212.775L225.975 212.806L226.481 212.842L226.985 212.883L227.49 212.929L227.993 212.981L228.495 213.037L228.995 213.099L229.495 213.166L229.992 213.237L230.488 213.314L230.983 213.396L231.477 213.482L231.969 213.574L232.459 213.671L232.948 213.772L233.435 213.878L233.92 213.989L234.404 214.106L234.886 214.226L235.365 214.352L235.844 214.482L236.32 214.618L236.793 214.757L237.266 214.902L237.735 215.051L238.203 215.205L238.669 215.364L239.132 215.526L239.593 215.694L240.052 215.866L240.509 216.042L240.963 216.223L241.414 216.409L241.863 216.598L242.31 216.793L242.754 216.991L243.196 217.194L243.634 217.401L244.071 217.612L244.504 217.827L244.935 218.047L245.363 218.271L245.788 218.498L246.21 218.73L246.63 218.966L247.046 219.206L247.459 219.449L247.87 219.697L248.278 219.949L248.682 220.204L249.083 220.463L249.481 220.726L249.876 220.993L250.268 221.263L250.656 221.537L251.041 221.815L251.424 222.096L251.802 222.38L252.177 222.668L252.549 222.96L252.917 223.255L253.282 223.553L253.644 223.855L254.002 224.16L254.356 224.468L254.706 224.779L255.054 225.094L255.397 225.412L255.737 225.733L256.073 226.056L256.406 226.383L256.735 226.713L257.06 227.045L257.381 227.381L257.698 227.719L258.012 228.06L258.322 228.404L258.628 228.75L258.929 229.099L259.228 229.451L259.522 229.805L259.812 230.162L260.099 230.522L260.38 230.882L260.659 231.247L260.933 231.613L261.203 231.982L261.469 232.352L261.731 232.725L261.989 233.101L262.243 233.478L262.492 233.856L262.738 234.238L262.979 234.621L263.216 235.006L263.45 235.393L263.678 235.781L263.903 236.172L264.123 236.564L264.34 236.959L264.552 237.354L264.759 237.75L264.963 238.15L265.162 238.549L265.357 238.952L265.547 239.354L265.733 239.758L265.916 240.164L266.093 240.571L266.266 240.979L266.435 241.388L266.6 241.798L266.76 242.209L266.917 242.623L267.068 243.034L267.216 243.449L267.358 243.864L267.497 244.28L267.632 244.697L267.762 245.114L267.887 245.532L268.008 245.951L268.125 246.37L268.238 246.79L268.346 247.209L268.45 247.631L268.549 248.052L268.645 248.473L268.735 248.896L268.822 249.317L268.904 249.739L268.982 250.163L269.055 250.584L269.125 251.007L269.189 251.43L269.25 251.851L269.306 252.275L269.358 252.697L269.406 253.119L269.449 253.542L269.488 253.963L269.523 254.386L269.554 254.805L269.58 255.228L269.603 255.647L269.621 256.067L269.634 256.486L269.644 256.906L269.649 257.324L269.651 257.741L269.648 258.157L269.641 258.575L269.629 258.989L269.614 259.405L269.595 259.817L269.571 260.231L269.544 260.642L269.512 261.054L269.476 261.463L269.437 261.873L269.393 262.279L269.346 262.686L269.294 263.092L269.238 263.496L269.179 263.898L269.116 264.301L269.048 264.7L268.977 265.1L268.902 265.497L268.824 265.893L268.741 266.287L268.655 266.68L268.565 267.072L268.471 267.461L268.373 267.849L268.272 268.236L268.167 268.62L268.059 269.003L267.946 269.384L267.831 269.763L267.711 270.141L267.588 270.516L267.462 270.889L267.332 271.262L267.199 271.63L267.062 271.999L266.922 272.364L266.779 272.726L266.631 273.088L266.481 273.447L266.328 273.804L266.171 274.157L266.01 274.511L265.847 274.861L265.681 275.208L265.511 275.554L265.339 275.896L265.163 276.237L264.984 276.575L264.801 276.912L264.617 277.244L264.429 277.574L264.237 277.903L264.044 278.228L263.848 278.55L263.648 278.871L263.446 279.188L263.24 279.504L263.033 279.816L262.822 280.125L262.609 280.432L262.393 280.736L262.175 281.036L261.953 281.335L261.729 281.63L261.503 281.923L261.274 282.213L261.043 282.499L260.81 282.783L260.574 283.063L260.335 283.342L260.095 283.616L259.852 283.887L259.607 284.157L259.36 284.422L259.11 284.685L258.858 284.945L258.605 285.201L258.349 285.454L258.092 285.704L257.831 285.951L257.569 286.195L257.306 286.436L257.04 286.673L256.773 286.907L256.504 287.138L256.233 287.366L255.96 287.591L255.686 287.811L255.409 288.03L255.132 288.245L254.853 288.456L254.572 288.664L254.289 288.869L254.006 289.07L253.72 289.268L253.433 289.463L253.146 289.654L252.856 289.842L252.566 290.026L252.273 290.208L251.981 290.385L251.686 290.56L251.391 290.731L251.094 290.899L250.797 291.063L250.498 291.224L250.199 291.381L249.898 291.535L249.597 291.685L249.294 291.832L248.991 291.976L248.687 292.116L248.382 292.253L248.077 292.386L247.77 292.516L247.463 292.642L247.156 292.765L246.849 292.885L246.539 293.001L246.23 293.113L245.921 293.222L245.611 293.328L245.3 293.431L244.99 293.529L244.678 293.625L244.367 293.717L244.055 293.805L243.744 293.89L243.431 293.972L243.119 294.051L242.808 294.125L242.494 294.197L242.181 294.265L241.869 294.33L241.557 294.391L241.244 294.449L240.933 294.504L240.619 294.555L240.308 294.603L239.996 294.648L239.685 294.689L239.374 294.727L239.062 294.761L238.752 294.792L238.441 294.821L238.132 294.845L237.822 294.867L237.513 294.885L237.204 294.9L236.896 294.911L236.589 294.92L236.283 294.925L235.976 294.927L235.67 294.926L235.366 294.922L235.062 294.914L234.759 294.904L234.456 294.89L234.154 294.873L233.854 294.853L233.554 294.83L233.254 294.804L232.957 294.775L232.659 294.743L232.363 294.708L232.069 294.67L231.774 294.628L231.481 294.584L231.189 294.537L230.898 294.487L230.609 294.434L230.321 294.379L230.033 294.32L229.748 294.258L229.464 294.194L229.179 294.127L228.899 294.057L228.617 293.984L228.338 293.909L228.06 293.831L227.784 293.75L227.509 293.666L227.235 293.58L226.964 293.491L226.693 293.4L226.425 293.306L226.158 293.209L225.892 293.11L225.627 293.008L225.366 292.904L225.105 292.797L224.845 292.688L224.59 292.577L224.333 292.462L224.079 292.346L223.828 292.227L223.578 292.106L223.33 291.983L223.082 291.857L222.837 291.729L222.596 291.599L222.355 291.467L222.116 291.332L221.878 291.195L221.643 291.056L221.411 290.916L221.179 290.772L220.951 290.627L220.723 290.48L220.499 290.331L220.276 290.18L220.055 290.027L219.837 289.872L219.619 289.715L219.405 289.557L219.193 289.396L218.983 289.234L218.775 289.069L218.569 288.903L218.366 288.736L218.165 288.567L217.964 288.396L217.768 288.223L217.573 288.049L217.381 287.873L217.19 287.696L217.003 287.517L216.817 287.337L216.634 287.155L216.453 286.972L216.274 286.787L216.098 286.602L215.923 286.413L215.752 286.225L215.582 286.035L215.415 285.844L215.251 285.652L215.089 285.458L214.929 285.263L214.771 285.066L214.616 284.87L214.464 284.672L214.313 284.472L214.166 284.272L214.02 284.071L213.877 283.868L213.737 283.666L213.598 283.461L213.463 283.256L213.329 283.05L213.199 282.844L213.071 282.636L212.945 282.428L212.821 282.219L212.701 282.01L212.582 281.799L212.466 281.588L212.352 281.377L212.241 281.165L212.132 280.952L212.026 280.739L211.922 280.525L211.821 280.311L211.722 280.096L211.626 279.881L211.532 279.666L211.44 279.45L211.351 279.233L211.265 279.017L211.181 278.801L211.099 278.584L211.019 278.367L210.942 278.148L210.868 277.931L210.796 277.715L210.726 277.497L210.659 277.278L210.594 277.061L210.532 276.842L210.472 276.625L210.414 276.407L210.359 276.189L210.306 275.972L210.256 275.754L210.207 275.537L210.161 275.319L210.118 275.103L210.077 274.885L210.038 274.669L210.001 274.453L209.967 274.236L209.935 274.021L209.906 273.806L209.878 273.591L209.853 273.376L209.83 273.162L209.81 272.948L209.791 272.735L209.775 272.522L209.761 272.311L209.749 272.099L209.74 271.887L209.732 271.677L209.727 271.467L209.724 271.259L209.723 271.05L209.723 270.75L209.723 270.388L209.723 270.097L181.077 270.097L181.07 270.53L181.067 271.04L181.069 271.549L181.077 272.059L181.09 272.57L181.108 273.081L181.131 273.593L181.16 274.104L181.193 274.616L181.232 275.129L181.277 275.642L181.326 276.155L181.381 276.668L181.441 277.18L181.506 277.693L181.577 278.207L181.653 278.719L181.734 279.231L181.82 279.744L181.912 280.256L182.009 280.767L182.112 281.279L182.22 281.79L182.333 282.3L182.451 282.81L182.575 283.319L182.704 283.828L182.838 284.335L182.978 284.842L183.123 285.348L183.273 285.853L183.429 286.357L183.59 286.86L183.756 287.362L183.927 287.863L184.104 288.362L184.286 288.86L184.473 289.357L184.666 289.853L184.864 290.347L185.067 290.84L185.275 291.331L185.489 291.82L185.707 292.308L185.931 292.794L186.16 293.278L186.395 293.761L186.634 294.242L186.878 294.72L187.128 295.197L187.383 295.672L187.643 296.144L187.908 296.614L188.178 297.082L188.453 297.548L188.733 298.012L189.019 298.473L189.309 298.931L189.604 299.387L189.904 299.84L190.209 300.291L190.519 300.739L190.834 301.185L191.154 301.628L191.478 302.067L191.808 302.504L192.142 302.938L192.481 303.369L192.825 303.797L193.173 304.222L193.526 304.643L193.884 305.062L194.246 305.477L194.613 305.889L194.985 306.297L195.361 306.702L195.742 307.104L196.127 307.502L196.517 307.896L196.91 308.286L197.309 308.674L197.712 309.058L198.119 309.437L198.53 309.812L198.946 310.185L199.366 310.552L199.79 310.916L200.218 311.276L200.651 311.632L201.087 311.984L201.527 312.331L201.972 312.675L202.421 313.013L202.873 313.348L203.329 313.679L203.789 314.005L204.253 314.326L204.721 314.643L205.192 314.955L205.667 315.264L206.146 315.567L206.628 315.865L207.114 316.159L207.604 316.448L208.096 316.733L208.592 317.012L209.092 317.287L209.595 317.556L210.101 317.821L210.61 318.081L211.122 318.335L211.638 318.585L212.157 318.83L212.678 319.069L213.203 319.303L213.731 319.532L214.261 319.756L214.795 319.974L215.331 320.187L215.87 320.395L216.411 320.597L216.955 320.794L217.502 320.985L218.052 321.171L218.603 321.351L219.157 321.526L219.713 321.695L220.272 321.859L220.834 322.017L221.397 322.169L221.962 322.315L222.529 322.456L223.099 322.591L223.67 322.72L224.244 322.843L224.819 322.961L225.395 323.073L225.974 323.178L226.555 323.278L227.136 323.372L227.72 323.46L228.305 323.542L228.891 323.617L229.479 323.687L230.068 323.751L230.658 323.809L231.25 323.86L231.843 323.906L232.437 323.945L233.032 323.978L233.627 324.005L234.224 324.026L234.822 324.041L235.42 324.049L236.019 324.051L236.618 324.047L237.219 324.037L237.819 324.021L238.42 323.998L239.022 323.969L239.624 323.933L240.225 323.892L240.828 323.844L241.431 323.789L242.033 323.729L242.635 323.662L243.238 323.588L243.841 323.509L244.442 323.423L245.045 323.33L245.646 323.231L246.247 323.126L246.848 323.015L247.448 322.897L248.048 322.773L248.647 322.642L249.245 322.505L249.843 322.362L250.44 322.212L251.035 322.056L251.63 321.894L252.224 321.725L252.817 321.55L253.408 321.369L253.998 321.181L254.587 320.987L255.175 320.786L255.761 320.58L256.346 320.367L256.929 320.147L257.51 319.922L258.09 319.69L258.668 319.452L259.244 319.208L259.819 318.957L260.392 318.7L260.962 318.437L261.53 318.168L262.097 317.893L262.66 317.611L263.222 317.324L263.782 317.03L264.339 316.73L264.893 316.424L265.445 316.112L265.995 315.794L266.541 315.47L267.085 315.14L267.627 314.804L268.165 314.462L268.701 314.114L269.233 313.76L269.763 313.401L270.289 313.035L270.812 312.664L271.332 312.287L271.85 311.904L272.363 311.515L272.873 311.121L273.379 310.721L273.883 310.316L274.382 309.904L274.878 309.488L275.37 309.065L275.859 308.637L276.343 308.204L276.824 307.765L277.301 307.321L277.773 306.872L278.242 306.417L278.707 305.957L279.168 305.491L279.624 305.021L280.075 304.545L280.523 304.064L280.967 303.578L281.405 303.087L281.84 302.591L282.269 302.09L282.695 301.584L283.115 301.073L283.531 300.557L283.942 300.037L284.348 299.512L284.749 298.982L285.146 298.447L285.537 297.908L285.924 297.364L286.305 296.816L286.681 296.263L287.052 295.706L287.418 295.145L287.779 294.579L288.134 294.009L288.484 293.435L288.828 292.856L289.167 292.274L289.501 291.687L289.829 291.096L290.151 290.502L290.468 289.903L290.779 289.301L291.084 288.695L291.384 288.085L291.677 287.472L291.965 286.855L292.247 286.235L292.523 285.611L292.793 284.983L293.057 284.352L293.315 283.718L293.567 283.081L293.813 282.44L294.052 281.797L294.286 281.15L294.513 280.5L294.734 279.847L294.948 279.192L295.156 278.533L295.358 277.872L295.554 277.208L295.743 276.542L295.925 275.873L296.101 275.201L296.27 274.528L296.433 273.851L296.59 273.172L296.739 272.492L296.882 271.809L297.018 271.124L297.148 270.437L297.271 269.747L297.387 269.057L297.496 268.364L297.599 267.669L297.694 266.973L297.783 266.275L297.865 265.576L297.94 264.875L298.008 264.173L298.069 263.469L298.123 262.764L298.171 262.058L298.211 261.351L298.244 260.643L298.27 259.934L298.289 259.224L298.301 258.513L298.306 257.801L298.304 257.089L298.295 256.376L298.279 255.662L298.255 254.949L298.225 254.234L298.187 253.52L298.142 252.805L298.09 252.09L298.031 251.374L297.964 250.659L297.891 249.944L297.81 249.229L297.722 248.515L297.627 247.8L297.525 247.086L297.415 246.372L297.298 245.659L297.174 244.946L297.043 244.234L296.905 243.523L296.759 242.813L296.606 242.103L296.446 241.394L296.279 240.687L296.105 239.98L295.923 239.275L295.735 238.571L295.539 237.868L295.336 237.167L295.125 236.467L294.908 235.769L294.683 235.072L294.452 234.378L294.213 233.685L293.967 232.993L293.714 232.304L293.454 231.617L293.187 230.932L292.913 230.249L292.631 229.568L292.343 228.89L292.048 228.214L291.746 227.54L291.436 226.869L291.12 226.2L290.797 225.535L290.467 224.872L290.13 224.212L289.787 223.554L289.436 222.9L289.079 222.249L288.714 221.601L288.344 220.956L287.966 220.315L287.582 219.676L287.191 219.041L286.793 218.41L286.389 217.782L285.978 217.158L285.56 216.538L285.136 215.921L284.706 215.309L284.269 214.7L283.825 214.095L283.376 213.494L282.92 212.897L282.457 212.305L281.988 211.717L281.513 211.133L281.032 210.554L280.545 209.979L280.051 209.408L279.552 208.843L279.046 208.281L278.535 207.725L278.017 207.174L277.493 206.627L276.964 206.085L276.429 205.548L275.888 205.017L275.341 204.49L274.789 203.969L274.231 203.453L273.667 202.942L273.098 202.437L272.523 201.937L271.943 201.442L271.357 200.954L270.766 200.471L270.17 199.993L269.569 199.521L268.962 199.055L268.35 198.595L267.733 198.141L267.111 197.693L266.485 197.251L265.853 196.815L265.216 196.385L264.575 195.962L263.929 195.545L263.278 195.133L262.623 194.729L261.963 194.331L261.298 193.939L260.629 193.554L259.956 193.175L259.278 192.803L258.596 192.438L257.91 192.079L257.22 191.728L256.526 191.383L255.828 191.045L255.125 190.713L254.419 190.389L253.71 190.072L252.996 189.762L252.279 189.459L251.558 189.163L250.834 188.875L250.106 188.593L249.375 188.319L248.641 188.052L247.903 187.793L247.162 187.541L246.418 187.296L245.671 187.059L244.921 186.829L244.169 186.607L243.413 186.393L242.655 186.186L241.894 185.986L241.13 185.795L240.364 185.611L239.596 185.435L238.825 185.267L238.052 185.106L237.276 184.954L236.499 184.809L235.719 184.672L234.938 184.543L234.155 184.422L233.369 184.309L232.582 184.204L231.794 184.107L231.004 184.018L230.212 183.937L229.419 183.864L228.624 183.799L227.829 183.743L227.032 183.694L226.234 183.654L225.435 183.622L224.635 183.598L223.834 183.583L223.032 183.575L222.23 183.576L221.427 183.585L220.624 183.603L219.82 183.629L219.016 183.663L218.211 183.705L217.407 183.755L216.602 183.814L215.797 183.882L214.992 183.957L214.188 184.041L213.383 184.134L212.579 184.234L211.776 184.343L210.972 184.461L210.17 184.587L209.367 184.721L208.566 184.863L207.766 185.014L206.966 185.173L206.167 185.341L205.37 185.517L204.573 185.701L203.778 185.894L202.984 186.095L202.192 186.304L201.401 186.521L200.611 186.747L199.823 186.981L199.037 187.224L198.253 187.475L197.471 187.734L196.69 188.001L195.912 188.276L195.136 188.56L194.362 188.852L193.59 189.152L192.821 189.46L192.054 189.776L191.29 190.101L190.529 190.434L189.77 190.774L189.014 191.123L188.261 191.48L187.511 191.845L186.764 192.217L186.021 192.598L185.28 192.987L184.543 193.383L183.809 193.788L183.078 194.2L182.352 194.62L181.628 195.048L180.909 195.484L180.193 195.927L179.481 196.378L178.774 196.837L178.07 197.303L177.37 197.777L176.674 198.258L175.983 198.747L175.296 199.244L174.614 199.748L173.936 200.259L173.262 200.777L172.594 201.303L171.93 201.837L171.27 202.377L170.616 202.924L169.967 203.479L169.322 204.041L168.683 204.609L168.049 205.185L167.421 205.768L166.797 206.357L166.179 206.954L165.566 207.557L164.959 208.167L164.358 208.784L163.762 209.407L163.172 210.036L162.588 210.673L162.009 211.315L161.437 211.964L160.871 212.62L160.311 213.282L159.756 213.95L159.209 214.624L158.667 215.304L158.132 215.991L157.603 216.683L157.081 217.381L156.565 218.085L156.056 218.795L155.554 219.511L155.058 220.232L154.569 220.959L154.087 221.692L153.612 222.43L153.144 223.173L152.683 223.921L152.228 224.676L151.782 225.435L151.342 226.199L150.91 226.968L150.484 227.742L150.067 228.522L149.656 229.306L149.254 230.094L148.858 230.888L148.471 231.686L148.091 232.488L147.718 233.296L147.354 234.107L146.997 234.923L146.648 235.743L146.307 236.568L145.973 237.396L145.648 238.228L145.331 239.064L145.022 239.904L144.721 240.748L144.428 241.596L144.143 242.447L143.867 243.301L143.598 244.159L143.338 245.021L143.087 245.885L142.844 246.753L142.609 247.624L142.383 248.498L142.165 249.375L141.956 250.255L141.755 251.137L141.563 252.022L141.379 252.91L141.205 253.8L141.039 254.693L140.881 255.588L140.733 256.485L140.593 257.384L140.462 258.286L140.339 259.189L140.226 260.094L140.122 261.001L140.026 261.91L139.939 262.82L139.862 263.732L139.793 264.645L139.733 265.56L139.683 266.476L139.641 267.392L139.608 268.31L139.585 269.229L139.57 270.149L139.565 271.07L139.569 271.991L139.582 272.913L139.604 273.835L139.635 274.758L139.675 275.681L139.725 276.604L139.783 277.528L139.851 278.451L139.928 279.375L140.014 280.298L140.109 281.221L140.214 282.143L140.328 283.065L140.451 283.987L140.583 284.908L140.724 285.828L140.875 286.748L141.035 287.666L141.204 288.583L141.382 289.5L141.569 290.415L141.766 291.329L141.971 292.241L142.186 293.152L142.41 294.061L142.644 294.969L142.886 295.875L143.137 296.779L143.398 297.681L143.668 298.581L143.946 299.479L144.234 300.374L144.531 301.267L144.837 302.158L145.152 303.046L145.476 303.932L145.809 304.814L146.151 305.695L146.501 306.571L146.861 307.445L147.23 308.316L147.607 309.184L147.993 310.048L148.388 310.909L148.792 311.767L149.205 312.621L149.626 313.471L150.056 314.318L150.495 315.161L150.943 315.999L151.398 316.834L151.863 317.664L152.336 318.491L152.818 319.313L153.307 320.131L153.806 320.944L154.313 321.753L154.828 322.557L155.351 323.355L155.883 324.15L156.423 324.939L156.97 325.723L157.527 326.503L158.091 327.277L158.663 328.046L159.243 328.809L159.831 329.567L160.427 330.32L161.031 331.066L161.643 331.808L162.262 332.543L162.889 333.272L163.524 333.996L164.166 334.713L164.816 335.425L165.473 336.13L166.138 336.829L166.809 337.521L167.489 338.207L168.175 338.887L168.869 339.559L169.57 340.226L170.277 340.885L170.992 341.538L171.714 342.183L172.442 342.822L173.178 343.454L173.92 344.078L174.668 344.696L175.424 345.306L176.186 345.909L176.954 346.504L177.728 347.091L178.509 347.672L179.297 348.244L180.09 348.809L180.889 349.366L181.695 349.915L182.506 350.457L183.324 350.99L184.146 351.515L184.975 352.032L185.81 352.542L186.65 353.042L187.495 353.535L188.347 354.019L189.203 354.495L190.064 354.962L190.931 355.42L191.802 355.87L192.679 356.312L193.561 356.745L194.448 357.168L195.339 357.583L196.235 357.99L197.135 358.387L198.04 358.775L198.949 359.154L199.863 359.525L200.781 359.886L201.703 360.237L202.629 360.58L203.56 360.913L204.494 361.237L205.432 361.552L206.373 361.857L207.318 362.153L208.267 362.439L209.219 362.716L210.174 362.983L211.133 363.24L212.094 363.488L213.059 363.726L214.027 363.954L214.998 364.173L215.971 364.381L216.947 364.58L217.926 364.769L218.906 364.948L219.89 365.117L220.876 365.276L221.864 365.425L222.854 365.564L223.846 365.693L224.84 365.812L225.835 365.921L226.833 366.02L227.831 366.108L228.832 366.186L229.834 366.254L230.837 366.312L231.841 366.36L232.846 366.397L233.853 366.424L234.86 366.44L235.868 366.447L236.876 366.443L237.886 366.429L238.895 366.404L239.905 366.369L240.916 366.323L241.926 366.268L242.937 366.201L243.947 366.125L244.958 366.038L245.968 365.94L246.977 365.833L247.987 365.714L248.995 365.586L250.003 365.446L251.011 365.297L252.017 365.137L253.022 364.967L254.027 364.786L255.03 364.595L256.032 364.393L257.032 364.181L258.031 363.959L259.029 363.726L260.024 363.483L261.018 363.23L262.01 362.966L262.999 362.692L263.988 362.407L264.973 362.113L265.956 361.808L266.937 361.492L267.915 361.167L268.891 360.831L269.864 360.485L270.834 360.129L271.801 359.763L272.765 359.387L273.726 359L274.683 358.604L275.638 358.197L276.588 357.781L277.536 357.354L278.479 356.917L279.419 356.471L280.355 356.015L281.287 355.548L282.215 355.072L283.139 354.586L284.058 354.091L284.973 353.585L285.884 353.071L286.79 352.546L287.692 352.012L288.588 351.468L289.48 350.915L290.367 350.352L291.249 349.78L292.125 349.198L292.997 348.608L293.863 348.007L294.724 347.398L295.579 346.78L296.429 346.152L297.273 345.515L298.11 344.87L298.943 344.215L299.769 343.552L300.589 342.879L301.403 342.198L302.21 341.508L303.012 340.81L303.807 340.102L304.595 339.387L305.376 338.663L306.152 337.93L306.92 337.189L307.681 336.44L308.435 335.682L309.183 334.917L309.923 334.143L310.656 333.361L311.381 332.571L312.1 331.774L312.81 330.968L313.514 330.155L314.209 329.334L314.897 328.506L315.577 327.67L316.249 326.826L316.914 325.976L317.57 325.118L318.218 324.252L318.858 323.38L319.49 322.501L320.113 321.614L320.728 320.721L321.334 319.821L321.932 318.914L322.522 318.001L323.102 317.081L323.674 316.155L324.237 315.222L324.792 314.283L325.337 313.337L325.873 312.386L326.4 311.429L326.918 310.465L327.427 309.496L327.926 308.521L328.416 307.541L328.897 306.554L329.368 305.563L329.83 304.566L330.282 303.563L330.724 302.556L331.157 301.543L331.58 300.526L331.993 299.503L332.397 298.476L332.79 297.444L333.174 296.408L333.547 295.366L333.91 294.321L334.264 293.271L334.607 292.217L334.939 291.159L335.262 290.097L335.574 289.031L335.876 287.961L336.168 286.888L336.449 285.811L336.72 284.73L336.98 283.647L337.229 282.559L337.468 281.469L337.697 280.376L337.914 279.28L338.121 278.18L338.318 277.079L338.503 275.974L338.678 274.867L338.842 273.758L338.995 272.646L339.137 271.533L339.268 270.417L339.388 269.299L339.498 268.179L339.596 267.058L339.683 265.935L339.76 264.81L339.825 263.684L339.879 262.557L339.922 261.429L339.954 260.299L339.975 259.169L339.984 258.037L339.983 256.906L339.97 255.773L339.946 254.64L339.911 253.507L339.865 252.373L339.808 251.239L339.739 250.105L339.659 248.971L339.568 247.838L339.466 246.705L339.352 245.572L339.227 244.439L339.091 243.308L338.944 242.177L338.785 241.047L338.615 239.918L338.434 238.79L338.242 237.664L338.039 236.539L337.824 235.415L337.598 234.293L337.361 233.172L337.113 232.054L336.853 230.937L336.583 229.822L336.301 228.71L336.008 227.599L335.704 226.492L335.389 225.386L335.063 224.284L334.726 223.184L334.377 222.087L334.018 220.993L333.648 219.902L333.267 218.814L332.875 217.729L332.472 216.648L332.058 215.571L331.633 214.497L331.197 213.427L330.751 212.361L330.294 211.298L329.826 210.24L329.347 209.186L328.858 208.137L328.358 207.092L327.848 206.051L327.327 205.015L326.795 203.984L326.253 202.958L325.701 201.937L325.138 200.921L324.565 199.91L323.982 198.904L323.388 197.904L322.784 196.909L322.171 195.92L321.547 194.937L320.913 193.96L320.269 192.989L319.615 192.023L318.951 191.064L318.277 190.111L317.594 189.165L316.901 188.225L316.198 187.291L315.486 186.365L314.764 185.445L314.033 184.532L313.292 183.626L312.542 182.727L311.783 181.835L311.015 180.951L310.237 180.074L309.451 179.205L308.655 178.343L307.85 177.489L307.037 176.642L306.215 175.804L305.384 174.973L304.545 174.151L303.696 173.336L302.84 172.53L301.975 171.732L301.102 170.943L300.22 170.162L299.33 169.39L298.433 168.627L297.527 167.872L296.613 167.126L295.692 166.389L294.763 165.661L293.826 164.943L292.881 164.233L291.929 163.533L290.97 162.842L290.003 162.161L289.029 161.489L288.048 160.827L287.06 160.175L286.065 159.532L285.063 158.899L284.054 158.276L283.039 157.663L282.017 157.06L280.988 156.468L279.954 155.885L278.913 155.313L277.865 154.751L276.812 154.2L275.753 153.659L274.687 153.129L273.616 152.609L272.54 152.1L271.458 151.602L270.37 151.114L269.277 150.638L268.179 150.172L267.075 149.717L265.967 149.274L264.853 148.841L263.735 148.42L262.612 148.01L261.484 147.611L260.352 147.224L259.215 146.848L258.075 146.483L256.929 146.13L255.78 145.789L254.627 145.459L253.47 145.14L252.31 144.834L251.146 144.539L249.978 144.256L248.807 143.984L247.632 143.725L246.455 143.477L245.274 143.241L244.091 143.018L242.905 142.806L241.716 142.606L240.524 142.418L239.33 142.243L238.134 142.08L236.935 141.928L235.735 141.789L234.532 141.662L233.328 141.548L232.121 141.445L230.914 141.355L229.704 141.278L228.494 141.212L227.282 141.159L226.069 141.118L224.855 141.09L223.64 141.074L222.424 141.071L221.208 141.08L219.991 141.101L218.774 141.135L217.556 141.182L216.339 141.24L215.121 141.312L213.904 141.396L212.686 141.492L211.469 141.601L210.253 141.722L209.037 141.856L207.822 142.002L206.607 142.161L205.394 142.333L204.182 142.517L202.971 142.713L201.761 142.922L200.553 143.143L199.346 143.377L198.141 143.623L196.938 143.882L195.737 144.153L194.538 144.437L193.341 144.733L192.147 145.041L190.955 145.362L189.766 145.695L188.579 146.04L187.395 146.398L186.214 146.768L185.036 147.15L183.862 147.545L182.69 147.951L181.522 148.37L180.358 148.801L179.197 149.244L178.041 149.7L176.888 150.167L175.739 150.646L174.594 151.138L173.454 151.641L172.318 152.156L171.187 152.683L170.06 153.222L168.938 153.772L167.821 154.335L166.709 154.909L165.602 155.495L164.5 156.092L163.404 156.701L162.313 157.321L161.228 157.953L160.148 158.596L159.074 159.251L158.007 159.917L156.945 160.594L155.889 161.282L154.84 161.981L153.797 162.692L152.761 163.413L151.731 164.146L150.708 164.889L149.692 165.643L148.683 166.408L147.681 167.184L146.686 167.97L145.698 168.766L144.718 169.574L143.745 170.391L142.78 171.219L141.822 172.057L140.873 172.906L139.931 173.764L138.997 174.633L138.072 175.511L137.154 176.4L136.245 177.298L135.345 178.206L134.452 179.123L133.569 180.05L132.694 180.987L131.828 181.933L130.971 182.888L130.123 183.852L129.284 184.826L128.455 185.808L127.635 186.8L126.824 187.8L126.022 188.809L125.23 189.827L124.448 190.853L123.675 191.888L122.913 192.931L122.16 193.983L121.417 195.043L120.685 196.11L119.962 197.186L119.25 198.27L118.548 199.361L117.857 200.46L117.176 201.567L116.506 202.681L115.846 203.803L115.197 204.931L114.559 206.067L113.932 207.21L113.316 208.36L112.71 209.517L112.117 210.68L111.534 211.85L110.962 213.027L110.402 214.21L109.853 215.399L109.316 216.595L108.79 217.796L108.276 219.003L107.773 220.217L107.282 221.435L106.803 222.66L106.336 223.89L105.881 225.125L105.437 226.365L105.006 227.611L104.587 228.862L104.18 230.117L103.785 231.377L103.402 232.642L103.032 233.911L102.674 235.185L102.328 236.463L101.994 237.745L101.674 239.031L101.366 240.321L101.07 241.614L100.787 242.911L100.516 244.212L100.259 245.516L100.014 246.823L99.7814 248.134L99.5619 249.447L99.3554 250.763L99.1616 252.082L98.9808 253.404L98.8129 254.728L98.6581 256.054L98.5162 257.382L98.3873 258.713L98.2714 260.045L98.1687 261.38L98.079 262.715L98.0025 264.053L97.939 265.392L97.8888 266.731L97.8518 268.073L97.8279 269.415L97.8172 270.758L97.8198 272.102L97.8357 273.446L97.8647 274.791L97.907 276.136L97.9626 277.481L98.0315 278.826L98.1137 280.171L98.2092 281.516L98.3179 282.861L98.4399 284.205L98.5753 285.549L98.7239 286.891L98.8858 288.233L99.061 289.573L99.2495 290.913L99.4513 292.251L99.6664 293.588L99.8947 294.923L100.136 296.257L100.391 297.588L100.659 298.918L100.94 300.245L101.235 301.57L101.543 302.893L101.863 304.213L102.197 305.531L102.545 306.845L102.905 308.157L103.278 309.466L103.664 310.771L104.064 312.073L104.476 313.372L104.902 314.666L105.34 315.958L105.791 317.245L106.255 318.528L106.732 319.807L107.222 321.082L107.725 322.352L108.24 323.618L108.768 324.879L109.309 326.135L109.862 327.386L110.428 328.632L111.006 329.873L111.597 331.109L112.2 332.339L112.816 333.563L113.444 334.782L114.084 335.995L114.737 337.202L115.402 338.402L116.078 339.597L116.767 340.785L117.468 341.966L118.181 343.141L118.906 344.31L119.643 345.471L120.391 346.625L121.151 347.772L121.923 348.912L122.706 350.044L123.501 351.169L124.307 352.287L125.125 353.396L125.953 354.498L126.794 355.592L127.645 356.677L128.507 357.754L129.38 358.824L130.265 359.884L131.16 360.936L132.065 361.98L132.982 363.014L133.909 364.04L134.847 365.057L135.795 366.064L136.753 367.062L137.722 368.051L138.7 369.031L139.689 370.001L140.688 370.961L141.697 371.911L142.716 372.852L143.744 373.782L144.782 374.703L145.829 375.613L146.886 376.513L147.952 377.402L149.027 378.281L150.112 379.149L151.206 380.007L152.308 380.854L153.419 381.69L154.539 382.515L155.668 383.329L156.805 384.131L157.951 384.923L159.105 385.703L160.267 386.472L161.437 387.229L162.615 387.974L163.801 388.708L164.995 389.43L166.196 390.14L167.405 390.838L168.621 391.524L169.844 392.198L171.075 392.859L172.313 393.509L173.557 394.146L174.809 394.77L176.067 395.382L177.332 395.982L178.603 396.568L179.881 397.142L181.164 397.704L182.454 398.252L183.75 398.787L185.051 399.31L186.359 399.819L187.672 400.315L188.99 400.798L190.313 401.268L191.642 401.724L192.976 402.167L194.315 402.597L195.659 403.013L197.006 403.415L198.36 403.804L199.717 404.179L201.078 404.54L202.444 404.888L203.814 405.222L205.187 405.542L206.564 405.848L207.945 406.14L209.329 406.419L210.717 406.683L212.108 406.933L213.502 407.169L214.899 407.391L216.298 407.598L217.701 407.792L219.105 407.971L220.512 408.136L221.921 408.287L223.333 408.423L224.746 408.545L226.161 408.652L227.578 408.745L228.996 408.824L230.416 408.888L231.836 408.938L233.259 408.973L234.681 408.994L236.105 409L237.529 408.992L238.954 408.969L240.379 408.931L241.805 408.879L243.23 408.812L244.655 408.731L246.081 408.635L247.505 408.525L248.93 408.4L250.354 408.26L251.776 408.106L253.199 407.937L254.619 407.753L256.039 407.555L257.458 407.342L258.874 407.115L260.289 406.873L261.703 406.617L263.114 406.346L264.524 406.06L265.931 405.76L267.335 405.446L268.738 405.117L270.137 404.773L271.534 404.415L272.928 404.043L274.318 403.656L275.705 403.255L277.09 402.839L278.47 402.41L279.847 401.966L281.22 401.507L282.589 401.035L283.954 400.548L285.315 400.047L286.671 399.532L288.023 399.003L289.37 398.46L290.712 397.903L292.05 397.332L293.382 396.747L294.709 396.149L296.031 395.536L297.347 394.91L298.658 394.27L299.963 393.616L301.262 392.949L302.554 392.268L303.841 391.574L305.122 390.866L306.395 390.145L307.663 389.411L308.924 388.663L310.177 387.903L311.424 387.129L312.664 386.342L313.896 385.542L315.121 384.729L316.339 383.903L317.548 383.065L318.75 382.214L319.945 381.35L321.131 380.474L322.309 379.585L323.478 378.684L324.64 377.771L325.793 376.845L326.937 375.907L328.072 374.957L329.198 373.995L330.316 373.021L331.424 372.036L332.523 371.039L333.612 370.03L334.693 369.009L335.763 367.977L336.824 366.934L337.875 365.88L338.916 364.814L339.947 363.737L340.967 362.65L341.978 361.551L342.977 360.442L343.967 359.322L344.946 358.192L345.914 357.051L346.871 355.9L347.817 354.738L348.752 353.566L349.676 352.385L350.589 351.193L351.49 349.992L352.38 348.781L353.258 347.561L354.125 346.331L354.98 345.091L355.823 343.843L356.654 342.585L357.473 341.319L358.28 340.043L359.074 338.759L359.857 337.466L360.626 336.165L361.384 334.855L362.128 333.537L362.86 332.211L363.58 330.877L364.286 329.535L364.98 328.185L365.66 326.828L366.328 325.463L366.982 324.091L367.623 322.712L368.25 321.325L368.864 319.932L369.465 318.532L370.052 317.125L370.626 315.712L371.186 314.292L371.732 312.866L372.264 311.434L372.783 309.995L373.287 308.551L373.777 307.101L374.254 305.646L374.716 304.185L375.164 302.719L375.598 301.248L376.017 299.772L376.422 298.291L376.813 296.805L377.189 295.315L377.551 293.82L377.898 292.321L378.23 290.818L378.548 289.31L378.851 287.799L379.139 286.285L379.413 284.767L379.672 283.245L379.915 281.72L380.144 280.192L380.358 278.662L380.557 277.128L380.741 275.592L380.91 274.053L381.064 272.512L381.203 270.969L381.326 269.424L381.435 267.877L381.528 266.328L381.606 264.778L381.669 263.226L381.716 261.673L381.748 260.119L381.765 258.564L381.767 257.008L381.755 255.588L381.755 141.08L353.099 141.08Z" fill="white"/>
<path d="M366.138 102.232L413.182 142.306H319.095L366.138 102.232Z" fill="white"/>
</svg>
